<svg xmlns="http://www.w3.org/2000/svg" xml:space="preserve" style="fill-rule:evenodd;clip-rule:evenodd;stroke-linecap:round;stroke-linejoin:round;stroke-miterlimit:1.5" viewBox="0 0 350 350"><path d="M310 31v248c0 17.109-13.891 31-31 31H31c-17.109 0-31-13.891-31-31V31C0 13.891 13.891 0 31 0h248c17.109 0 31 13.891 31 31" style="fill:#313131;stroke:#313131;stroke-width:.46px" transform="translate(5 5)scale(1.09677)"/><path d="M57 6v296h104.5s61.988-.659 83.616-27.093S266 236.457 266 224.441s-3.261-42.054-27.693-58.075c-24.431-16.02-51.873-14.594-52.032-15.949-.123-1.045.22-1.178.22-1.178s24.184-5.644 44.84-29.406c16.763-19.285 14.898-50.382 14.898-50.382s-1.679-21.313-16.64-37.718-44.622-21.655-50.135-22.705S152.423 5.99 136.149 6 57 6 57 6" style="fill:#9c7945;stroke:#313131;stroke-width:.5px" transform="translate(20 20)"/><path d="M83.324 158.053v117.53h87.588s33.726 1.012 53.06-17.43c16.662-15.892 14.932-36.688 14.932-36.688s1.598-26.81-10.103-38.888c-11.095-11.451-33.172-23.956-64.639-24.38-27.939-.377-80.838-.144-80.838-.144" style="fill:#313131;stroke:#9c7945;stroke-width:.5px" transform="translate(20 17.018)"/><path d="m83.324 147.889 64.061-.542s39.619-1.426 55.04-18.98c15.421-17.553 15.421-26.248 15.913-47.083s-17.717-36.255-17.717-36.255-13.945-12.632-52.497-12.96-64.8 0-64.8 0z" style="fill:#313131;stroke:#9c7945;stroke-width:.5px" transform="translate(20 20)"/></svg>